<?xml version="1.0" standalone="no"?>
<!DOCTYPE svg PUBLIC "-//W3C//DTD SVG 20010904//EN"
 "http://www.w3.org/TR/2001/REC-SVG-20010904/DTD/svg10.dtd">
<svg version="1.0" xmlns="http://www.w3.org/2000/svg"
 width="700.000000pt" height="700.000000pt" viewBox="0 0 700.000000 700.000000"
 preserveAspectRatio="xMidYMid meet">
<metadata>
Created by potrace 1.11, written by Peter Selinger 2001-2013
</metadata>
<g transform="translate(0.000000,700.000000) scale(0.100000,-0.100000)"
fill="#000000" stroke="none">
<path d="M389 6281 c-164 -44 -299 -169 -362 -336 l-22 -60 -2 -1830 c-1
-1219 1 -1848 8 -1884 32 -164 153 -312 313 -380 65 -28 97 -33 244 -38 l132
-5 1 -36 c2 -52 14 -149 25 -197 6 -27 38 -132 44 -145 50 -104 63 -131 83
-165 12 -22 24 -42 27 -45 3 -3 18 -23 35 -45 73 -99 195 -206 312 -273 162
-94 316 -135 508 -136 159 -1 208 6 330 45 308 98 554 330 664 624 27 70 27
70 46 156 15 67 23 127 24 187 l1 32 700 0 700 0 1 -27 c1 -16 1 -32 0 -36 -1
-7 10 -87 24 -167 8 -47 47 -155 82 -228 112 -236 328 -432 578 -525 128 -48
208 -61 365 -61 151 0 196 7 334 51 196 63 391 206 516 378 52 71 121 206 149
294 26 79 49 208 50 283 l1 37 294 3 294 3 38 30 c69 56 72 71 74 306 1 239
-7 273 -75 325 -37 28 -44 29 -157 32 l-118 4 -1 619 c-1 340 -2 622 -3 627
-1 4 -5 25 -10 47 -11 54 -44 131 -78 183 -38 55 -1176 1193 -1231 1230 -119
80 -178 91 -500 92 -149 0 -272 2 -274 3 -1 2 -3 136 -4 298 -1 218 -5 308
-15 349 -48 186 -191 332 -374 381 -61 17 -179 18 -1885 18 -1714 0 -1824 -1
-1886 -18z m5187 -2100 c299 -299 544 -547 545 -550 0 -3 2 -34 4 -68 l3 -63
-789 0 -789 0 0 613 0 612 241 0 241 0 544 -544z m-3703 -1921 c223 -52 394
-265 399 -494 2 -121 -24 -212 -92 -313 -42 -63 -70 -90 -142 -139 -243 -164
-583 -88 -734 164 -83 137 -100 307 -45 452 96 251 354 390 614 330z m3502 -1
c120 -27 247 -119 318 -230 128 -200 97 -481 -72 -650 -142 -142 -365 -190
-553 -119 -289 108 -421 434 -289 715 104 222 351 340 596 284z"/>
</g>
</svg>
