<?xml version="1.0" encoding="UTF-8"?>
<svg viewBox="0 0 24 24" version="1.1" xmlns="http://www.w3.org/2000/svg" xmlns:xlink="http://www.w3.org/1999/xlink">
    <!-- Generator: Sketch 55.2 (78181) - https://sketchapp.com -->
    <title>Icônes/Commande</title>
    <desc>Created with Sketch.</desc>
    <g id="Icônes/Commande" stroke="none" stroke-width="1" fill="none" fill-rule="evenodd">
        <path d="M20.8096,9.7685 L21.7436,5.7215 L6.7536,5.7215 C7.5656,7.7445 8.3436,9.6925 8.7556,10.7265 L20.8096,9.7685 Z M23.7826,4.0985 C23.9726,4.3375 24.0426,4.6495 23.9746,4.9465 L22.5936,10.9315 C22.4956,11.3565 22.1326,11.6685 21.6986,11.7045 L8.7996,12.7295 L7.8376,14.5025 L19.7726,14.5025 C20.3256,14.5025 20.7726,14.9505 20.7726,15.5025 C20.7726,16.0555 20.3256,16.5025 19.7726,16.5025 L6.1586,16.5025 C5.8056,16.5025 5.4796,16.3175 5.2986,16.0145 C5.1186,15.7115 5.1116,15.3355 5.2796,15.0265 L7.0296,11.7985 L4.3456,5.0935 C4.3446,5.0915 4.3446,5.0895 4.3436,5.0875 C4.1966,4.7195 4.0486,4.3545 3.9066,3.9995 L0.9996,3.9995 C0.4476,3.9995 -0.0004,3.5525 -0.0004,2.9995 C-0.0004,2.4475 0.4476,1.9995 0.9996,1.9995 L4.5806,1.9995 C4.9886,1.9995 5.3556,2.2475 5.5076,2.6245 C5.6506,2.9775 5.7986,3.3465 5.9506,3.7215 L22.9996,3.7215 C23.3046,3.7215 23.5926,3.8605 23.7826,4.0985 Z M9,21.5029 C9.553,21.5029 10,21.0559 10,20.5029 C10,19.9499 9.553,19.5029 9,19.5029 C8.447,19.5029 8,19.9499 8,20.5029 C8,21.0559 8.447,21.5029 9,21.5029 Z M9,17.5029 C10.654,17.5029 12,18.8489 12,20.5029 C12,22.1569 10.654,23.5029 9,23.5029 C7.346,23.5029 6,22.1569 6,20.5029 C6,18.8489 7.346,17.5029 9,17.5029 Z M17,21.5029 C17.553,21.5029 18,21.0559 18,20.5029 C18,19.9499 17.553,19.5029 17,19.5029 C16.447,19.5029 16,19.9499 16,20.5029 C16,21.0559 16.447,21.5029 17,21.5029 Z M17,17.5029 C18.654,17.5029 20,18.8489 20,20.5029 C20,22.1569 18.654,23.5029 17,23.5029 C15.346,23.5029 14,22.1569 14,20.5029 C14,18.8489 15.346,17.5029 17,17.5029 Z" id="Shape" fill="#262828"></path>
    </g>
</svg>