<?xml version="1.0" encoding="UTF-8"?>
<svg viewBox="0 0 24 24" version="1.1" xmlns="http://www.w3.org/2000/svg" xmlns:xlink="http://www.w3.org/1999/xlink">
    <!-- Generator: Sketch 55.2 (78181) - https://sketchapp.com -->
    <title>Icônes/Facture</title>
    <desc>Created with Sketch.</desc>
    <g id="Icônes/Facture" stroke="none" stroke-width="1" fill="none" fill-rule="evenodd">
        <path d="M20,20.5859 L20,1.9999 L4,1.9999 L4,20.6109 L5.344,19.2869 C5.533,19.1019 5.821,19.0069 6.054,18.9999 C6.319,19.0019 6.573,19.1089 6.759,19.2989 L8.982,21.5609 L11.113,19.3129 C11.296,19.1189 11.548,19.0069 11.813,18.9999 L11.839,18.9999 C12.096,18.9999 12.343,19.0989 12.528,19.2759 L14.972,21.6049 L17.294,19.2909 C17.686,18.9019 18.317,18.9029 18.707,19.2929 L20,20.5859 Z M21,-0.0001 C21.553,-0.0001 22,0.4469 22,0.9999 L22,22.9999 C22,23.4039 21.757,23.7699 21.383,23.9239 C21.01,24.0809 20.579,23.9939 20.293,23.7069 L17.998,21.4129 L15.693,23.7089 C15.309,24.0909 14.69,24.0989 14.298,23.7239 L11.875,21.4159 L9.722,23.6879 C9.535,23.8849 9.276,23.9969 9.005,23.9999 C8.733,24.0239 8.473,23.8949 8.283,23.7009 L6.034,21.4149 L3.702,23.7129 C3.511,23.8999 3.258,23.9999 3,23.9999 C2.87,23.9999 2.738,23.9749 2.614,23.9229 C2.242,23.7669 2,23.4029 2,22.9999 L2,0.9999 C2,0.4469 2.447,-0.0001 3,-0.0001 L21,-0.0001 Z M6,6 C5.447,6 5,5.553 5,5 C5,4.447 5.447,4 6,4 L18,4 C18.553,4 19,4.447 19,5 C19,5.553 18.553,6 18,6 L6,6 Z M6,10 C5.447,10 5,9.553 5,9 C5,8.447 5.447,8 6,8 L18,8 C18.553,8 19,8.447 19,9 C19,9.553 18.553,10 18,10 L6,10 Z M18,12 C18.553,12 19,12.447 19,13 C19,13.553 18.553,14 18,14 L13,14 C12.447,14 12,13.553 12,13 C12,12.447 12.447,12 13,12 L18,12 Z M18,16 C18.553,16 19,16.447 19,17 C19,17.553 18.553,18 18,18 L13,18 C12.447,18 12,17.553 12,17 C12,16.447 12.447,16 13,16 L18,16 Z M8.2588,14.4589 C8.9668,14.6389 9.7548,14.8519 9.7548,15.7939 C9.7548,16.1909 9.5908,16.5079 9.3378,16.7389 C9.0978,16.9599 8.7758,17.1019 8.4428,17.1619 L8.4428,17.8099 C8.4428,17.9149 8.3578,17.9999 8.2518,17.9999 L7.6748,17.9999 C7.5698,17.9999 7.4848,17.9149 7.4848,17.8099 L7.4848,17.1559 C6.7328,17.0209 6.3088,16.5579 6.1758,15.8099 C6.1558,15.7009 6.2268,15.6099 6.3318,15.5889 L6.9788,15.4839 C7.0818,15.4689 7.1798,15.5389 7.1968,15.6429 C7.3038,16.3219 8.1088,16.4549 8.5548,16.1479 C8.6438,16.0859 8.7048,15.9939 8.7048,15.8609 C8.7048,15.6039 8.1228,15.5109 7.8578,15.4449 C7.1438,15.2699 6.2828,15.0589 6.2828,14.0989 C6.2828,13.3819 6.8248,12.9559 7.4848,12.8359 L7.4848,12.1899 C7.4848,12.0849 7.5698,11.9999 7.6748,11.9999 L8.2518,11.9999 C8.3578,11.9999 8.4428,12.0849 8.4428,12.1899 L8.4428,12.8529 C9.1118,12.9839 9.4898,13.3519 9.6028,14.0449 C9.6188,14.1469 9.5488,14.2449 9.4458,14.2619 L8.8028,14.3529 C8.6988,14.3659 8.6028,14.2939 8.5878,14.1899 C8.5368,13.8269 8.2758,13.7159 7.9378,13.7159 C7.7418,13.7159 7.2948,13.7499 7.2948,14.0219 C7.2948,14.2769 7.9878,14.3909 8.2588,14.4589 Z" id="Shape" fill="#262828"></path>
    </g>
</svg>