<?xml version="1.0" encoding="UTF-8"?>
<svg viewBox="0 0 24 24" version="1.1" xmlns="http://www.w3.org/2000/svg" xmlns:xlink="http://www.w3.org/1999/xlink">
    <!-- Generator: Sketch 55.2 (78181) - https://sketchapp.com -->
    <title>Icônes/Soumission</title>
    <desc>Created with Sketch.</desc>
    <g id="Icônes/Soumission" stroke="none" stroke-width="1" fill="none" fill-rule="evenodd">
        <path d="M8.8727,10.7715 C8.7677,10.7715 8.6827,10.6855 8.6827,10.5805 L8.6827,9.9275 C7.9317,9.7925 7.5077,9.3285 7.3737,8.5815 C7.3537,8.4725 7.4257,8.3805 7.5307,8.3605 L8.1777,8.2555 C8.2797,8.2395 8.3777,8.3105 8.3937,8.4145 C8.5017,9.0935 9.3077,9.2265 9.7527,8.9185 C9.8427,8.8575 9.9037,8.7645 9.9037,8.6325 C9.9037,8.3745 9.3217,8.2825 9.0557,8.2155 C8.3417,8.0415 7.4807,7.8305 7.4807,6.8695 C7.4807,6.1535 8.0227,5.7275 8.6827,5.6065 L8.6827,4.9615 C8.6827,4.8565 8.7677,4.7715 8.8727,4.7715 L9.4497,4.7715 C9.5557,4.7715 9.6407,4.8565 9.6407,4.9615 L9.6407,5.6235 C10.3097,5.7555 10.6877,6.1235 10.8017,6.8155 C10.8177,6.9185 10.7477,7.0165 10.6437,7.0335 L10.0007,7.1235 C9.8967,7.1375 9.8017,7.0655 9.7867,6.9605 C9.7357,6.5975 9.4747,6.4865 9.1357,6.4865 C8.9407,6.4865 8.4937,6.5205 8.4937,6.7925 C8.4937,7.0475 9.1847,7.1625 9.4567,7.2295 C10.1647,7.4105 10.9527,7.6235 10.9527,8.5655 C10.9527,8.9625 10.7887,9.2785 10.5357,9.5105 C10.2957,9.7305 9.9747,9.8735 9.6407,9.9335 L9.6407,10.5805 C9.6407,10.6855 9.5557,10.7715 9.4497,10.7715 L8.8727,10.7715 Z M2.0612,12.1416 C1.4132,11.8846 1.0932,11.1496 1.3482,10.5016 L2.1712,8.7806 L1.1982,7.2476 C1.0172,6.9676 0.9572,6.6286 1.0302,6.2976 C1.1022,5.9666 1.3002,5.6846 1.5862,5.5026 L1.6922,5.4426 L3.2662,4.5936 L3.3792,2.7926 C3.3982,2.4476 3.5662,2.1146 3.8422,1.8906 C4.0922,1.6746 4.4592,1.5686 4.8082,1.6166 L6.6122,1.8606 L7.7702,0.4596 C8.2122,-0.0794 9.0112,-0.1554 9.5492,0.2906 L10.9302,1.6046 L12.6812,1.1526 C13.3512,0.9746 14.0442,1.3856 14.2212,2.0566 L14.5822,3.9336 L16.2742,4.6006 C16.9432,4.8936 17.2372,5.6376 16.9612,6.2756 L16.9012,6.3946 L16.1512,7.9636 L17.1242,9.4956 C17.3062,9.7796 17.3662,10.1186 17.2922,10.4486 C17.2192,10.7786 17.0212,11.0606 16.7362,11.2416 L16.6302,11.3016 L14.8682,12.2516 C14.3792,12.5166 13.7752,12.3316 13.5132,11.8466 C13.2502,11.3606 13.4322,10.7536 13.9182,10.4926 L15.0132,9.9016 L14.3482,8.8546 C14.0482,8.3816 14.0132,7.7996 14.2542,7.2946 L14.7952,6.1666 L13.6492,5.7156 C13.1322,5.5106 12.7522,5.0446 12.6552,4.4996 L12.4222,3.2856 L11.2222,3.5946 C10.6932,3.7376 10.1052,3.5836 9.7042,3.1986 L8.8082,2.3426 L8.0152,3.3016 C7.6652,3.7296 7.1062,3.9536 6.5532,3.8706 L5.3262,3.7036 L5.2482,4.9456 C5.2032,5.5116 4.8862,5.9946 4.4012,6.2536 L3.3092,6.8426 L3.9742,7.8896 C4.2742,8.3626 4.3092,8.9446 4.0682,9.4496 L3.5302,10.5706 L4.6862,11.0266 C5.2002,11.2296 5.4522,11.8106 5.2492,12.3246 C5.0942,12.7176 4.7172,12.9566 4.3192,12.9566 C4.1972,12.9566 4.0732,12.9346 3.9522,12.8876 L2.0612,12.1416 Z M21.9411,11.4297 C23.0821,12.4997 23.1311,14.2997 22.0711,15.4407 L22.0421,15.4597 L16.3911,21.1107 C15.4411,22.0597 14.1311,22.6107 12.7711,22.6107 L6.1311,22.6107 L5.0251,23.7007 C4.8361,23.9007 4.5861,23.9997 4.3361,23.9997 C4.0761,23.9997 3.8261,23.9007 3.6261,23.7007 C3.2351,23.3097 3.2351,22.6797 3.6261,22.2897 L5.1221,20.7897 C5.2411,20.6797 5.3911,20.6107 5.5511,20.6107 L12.7811,20.6107 C13.6111,20.6107 14.3911,20.2807 14.9711,19.7007 L20.6111,14.0707 C20.9211,13.7307 20.9011,13.2007 20.5711,12.8897 C20.4121,12.7407 20.2021,12.6597 20.0021,12.6597 C19.7921,12.6597 19.5911,12.7407 19.4311,12.8897 L14.9811,17.3797 L14.9711,17.3897 C14.5821,17.7697 14.0711,17.9807 13.5311,17.9907 L9.2311,17.9907 C8.8911,17.9907 8.6221,17.7097 8.6221,17.3697 C8.6221,17.0397 8.8911,16.7597 9.2311,16.7597 L13.5311,16.7597 C13.9211,16.7597 14.2521,16.4907 14.3411,16.1107 C14.4411,15.6697 14.1621,15.2197 13.7121,15.1297 C13.6511,15.1107 13.5911,15.1107 13.5311,15.1107 L6.1111,15.1107 C5.4211,15.1107 4.7711,15.3797 4.2811,15.8607 L3.2021,16.9407 C3.0111,17.1397 2.7521,17.2407 2.5021,17.2407 C2.2411,17.2407 1.9811,17.1397 1.7921,16.9407 C1.4011,16.5497 1.4011,15.9197 1.7921,15.5307 L2.8721,14.4507 C3.7211,13.5997 4.9011,13.1107 6.1111,13.1107 L13.5311,13.1107 C13.7411,13.1107 13.9411,13.1297 14.1411,13.1697 C14.6911,13.2897 15.1711,13.5707 15.5511,13.9597 L18.0021,11.4807 L18.0311,11.4507 L18.0611,11.4297 C18.5911,10.9297 19.2711,10.6597 20.0021,10.6597 C20.7211,10.6597 21.4121,10.9297 21.9411,11.4297 Z" id="Shape" fill="#262828"></path>
    </g>
</svg>