<?xml version="1.0" encoding="UTF-8"?>
<svg fill="#0000FF" width="100pt" height="100pt" version="1.1" viewBox="0 0 100 100" xmlns="http://www.w3.org/2000/svg">
 <path d="m71 9.5h-30.801l-22.699 22.48v47.02c0 6.3398 5.1602 11.5 11.5 11.5h42c6.3398 0 11.5-5.1602 11.5-11.5v-58c0-6.3398-5.1602-11.5-11.5-11.5zm4.5 69.5c0 2.4805-2.0195 4.5-4.5 4.5h-42c-2.4805 0-4.5-2.0195-4.5-4.5v-44.102l18.578-18.398h27.922c2.4805 0 4.5 2.0195 4.5 4.5zm-22-38.207h-7v8.8867h-8.8867v7h8.8867v8.8867h7v-8.8867h8.8867v-7h-8.8867z"/>
</svg>
