<svg width="32" height="38" viewBox="0 0 32 38" fill="none" xmlns="http://www.w3.org/2000/svg">
<path fill-rule="evenodd" clip-rule="evenodd" d="M29.9834 29.1723C27.966 35.2606 22.7545 38 15.8604 38H0.561975C0.22501 38 0 37.7745 0 37.4407V0.560353C0 0.22436 0.22501 0 0.561975 0H15.8604C22.7545 0 27.966 2.73938 29.9834 8.83102C30.8801 11.5693 31.16 13.8042 31.16 19.0016C31.16 24.1969 30.8801 26.4329 29.9834 29.1723Z" fill="white"/>
<path d="M22.1136 27.0954H20.4223V29.9999H15.4444V27.0954H6.03098V22.2752L13.5617 7.99994H19.3055L11.7748 22.2752H15.4444V19.3707H20.4223V22.2752H22.1136V27.0954Z" fill="#FF3839"/>
</svg>
