<svg width="278" height="33" viewBox="0 0 278 33" fill="none" xmlns="http://www.w3.org/2000/svg">
<path fill-rule="evenodd" clip-rule="evenodd" d="M12.1683 24.149C12.422 23.4057 12.4949 22.7686 12.4949 20.5382C12.4949 18.3081 12.422 17.6706 12.1683 16.9274C11.6965 15.5116 10.6787 15.0864 8.71722 15.0864H7.84577C7.70021 15.0864 7.62762 15.1571 7.62762 15.299V25.7773C7.62762 25.9192 7.70021 25.9899 7.84577 25.9899H8.71722C10.6787 25.9899 11.6965 25.5654 12.1683 24.149ZM10.2794 8.50227C14.7479 8.50227 18.1248 10.2364 19.4322 14.0952C20.014 15.83 20.1955 17.2465 20.1955 20.5382C20.1955 23.8302 20.014 25.2463 19.4322 26.9812C18.1248 30.84 14.7479 32.5748 10.2794 32.5748H0.363716C0.145564 32.5748 0 32.4325 0 32.2207V8.85601C0 8.64339 0.145564 8.50227 0.363716 8.50227H10.2794ZM34.8372 24.8924C35.0916 24.1138 35.1268 23.0872 35.1268 20.5383C35.1268 17.9891 35.0916 16.9625 34.8372 16.1839C34.5102 15.1927 33.6387 14.6617 32.5124 14.6617C31.3857 14.6617 30.5151 15.1927 30.188 16.1839C29.9332 16.9625 29.8973 17.9891 29.8973 20.5383C29.8973 23.0872 29.9332 24.1138 30.188 24.8924C30.5151 25.884 31.3857 26.4146 32.5124 26.4146C33.6387 26.4146 34.5102 25.884 34.8372 24.8924ZM32.5124 8.07722C36.9434 8.07722 40.7211 10.0243 42.0648 14.06C42.7189 16.0778 42.827 17.5293 42.827 20.5383C42.827 23.5478 42.7189 24.9989 42.0648 27.0167C40.7211 31.0524 36.9434 32.9998 32.5124 32.9998C28.0814 32.9998 24.3029 31.0524 22.9593 27.0167C22.306 24.9989 22.1971 23.5478 22.1971 20.5383C22.1971 17.5293 22.306 16.0778 22.9593 14.06C24.3029 10.0243 28.0814 8.07722 32.5124 8.07722ZM65.4491 8.5022C65.7024 8.5022 65.8113 8.67907 65.7024 8.89169L58.0385 23.5825V32.2206C58.0385 32.4325 57.8929 32.5747 57.6759 32.5747H50.7738C50.5556 32.5747 50.4112 32.4325 50.4112 32.2206V23.5825L42.7473 8.89169C42.6381 8.67907 42.7473 8.5022 43.0006 8.5022H49.8653C50.1568 8.5022 50.3383 8.60795 50.4838 8.85594L54.2615 16.397H54.3704L58.0385 8.85594C58.1474 8.60795 58.3655 8.5022 58.6559 8.5022H65.4491ZM78.2477 24.8924C78.5021 24.1138 78.5377 23.0872 78.5377 20.5383C78.5377 17.9891 78.5021 16.9625 78.2477 16.1839C77.9203 15.1927 77.0496 14.6617 75.9229 14.6617C74.7966 14.6617 73.926 15.1927 73.5985 16.1839C73.3437 16.9625 73.3078 17.9891 73.3078 20.5383C73.3078 23.0872 73.3437 24.1138 73.5985 24.8924C73.926 25.884 74.7966 26.4146 75.9229 26.4146C77.0496 26.4146 77.9203 25.884 78.2477 24.8924ZM75.9229 8.07722C80.3543 8.07722 84.1316 10.0243 85.4753 14.06C86.1301 16.0778 86.2379 17.5293 86.2379 20.5383C86.2379 23.5478 86.1301 24.9989 85.4753 27.0167C84.1316 31.0524 80.3543 32.9998 75.9229 32.9998C71.4923 32.9998 67.7138 31.0524 66.3702 27.0167C65.7165 24.9989 65.6076 23.5478 65.6076 20.5383C65.6076 17.5293 65.7165 16.0778 66.3702 14.06C67.7138 10.0243 71.4923 8.07722 75.9229 8.07722ZM108.835 8.5022C109.053 8.5022 109.197 8.64332 109.197 8.85594V32.2206C109.197 32.4325 109.053 32.5747 108.835 32.5747H102.333C102.114 32.5747 101.824 32.469 101.714 32.2206L95.8679 20.3612H95.6498V32.2206C95.6498 32.4325 95.5046 32.5747 95.2865 32.5747H89.1481C88.9307 32.5747 88.7851 32.4325 88.7851 32.2206V8.85594C88.7851 8.64332 88.9307 8.5022 89.1481 8.5022H95.6498C95.8679 8.5022 96.1579 8.60795 96.2672 8.85594L102.15 20.7153H102.333V8.85594C102.333 8.64332 102.478 8.5022 102.696 8.5022H108.835ZM136.51 24.1497C136.763 23.4061 136.837 22.769 136.837 20.5385C136.837 18.3088 136.763 17.6709 136.51 16.9281C136.038 15.512 135.02 15.0871 133.059 15.0871H132.187C132.042 15.0871 131.969 15.1575 131.969 15.2994V25.778C131.969 25.9195 132.042 25.9914 132.187 25.9914H133.059C135.02 25.9914 136.038 25.5654 136.51 24.1497ZM134.621 8.50261C139.089 8.50261 142.467 10.2367 143.774 14.0955C144.355 15.8303 144.537 17.2464 144.537 20.5385C144.537 23.8306 144.355 25.247 143.774 26.9811C142.467 30.8399 139.089 32.5755 134.621 32.5755H124.705C124.487 32.5755 124.341 32.4336 124.341 32.2206V8.85635C124.341 8.64373 124.487 8.50261 124.705 8.50261H134.621ZM180.473 17.1403C186.321 17.9189 189.117 20.3616 189.117 25.1413C189.117 29.7079 185.449 33 178.548 33C174.299 33 170.049 31.3367 168.159 29.4596C168.014 29.3177 167.942 29.0351 168.124 28.8225L171.973 24.3973C172.118 24.22 172.3 24.22 172.446 24.3619C173.827 25.5654 176.187 26.6985 178.476 26.6985C180.401 26.6985 181.309 26.0968 181.309 25.1413C181.309 24.503 180.873 24.1143 178.983 23.8663L177.676 23.6898C172.011 22.9108 168.995 20.4681 168.995 15.7242C168.995 11.1579 172.736 8.07775 178.621 8.07775C182.29 8.07775 185.594 9.10435 187.955 10.8392C188.174 10.9807 188.209 11.1929 188.028 11.4406L184.759 15.9722C184.613 16.1491 184.433 16.1841 184.25 16.0783C182.653 15.0514 180.8 14.3431 178.91 14.3431C177.457 14.3431 176.805 14.9099 176.805 15.6538C176.805 16.3617 177.385 16.7154 179.166 16.9634L180.473 17.1403ZM223.224 18.7687C224.859 18.7687 225.694 17.9901 225.694 16.7155C225.694 15.4409 224.859 14.6623 223.224 14.6623H220.936C220.791 14.6623 220.718 14.7327 220.718 14.8746V18.5565C220.718 18.698 220.791 18.7687 220.936 18.7687H223.224ZM229.616 23.3708L233.758 32.1865C233.83 32.3626 233.758 32.5752 233.503 32.5752H225.912C225.585 32.5752 225.476 32.4691 225.367 32.2207L222.207 24.7165H220.936C220.791 24.7165 220.718 24.7872 220.718 24.9284V32.2207C220.718 32.4337 220.573 32.5752 220.355 32.5752H213.49C213.272 32.5752 213.127 32.4337 213.127 32.2207V8.85643C213.127 8.64381 213.272 8.50269 213.49 8.50269H223.805C230.162 8.50269 233.322 11.9012 233.322 16.6094C233.322 19.547 232.087 21.955 229.616 23.3708ZM269.355 17.1403C275.203 17.9189 278 20.3616 278 25.1413C278 29.7079 274.331 33 267.431 33C263.181 33 258.93 31.3367 257.042 29.4596C256.897 29.3177 256.824 29.0351 257.006 28.8225L260.855 24.3973C261.001 24.22 261.183 24.22 261.328 24.3619C262.709 25.5654 265.07 26.6985 267.358 26.6985C269.282 26.6985 270.191 26.0968 270.191 25.1413C270.191 24.503 269.754 24.1143 267.867 23.8663L266.559 23.6898C260.892 22.9108 257.877 20.4681 257.877 15.7242C257.877 11.1579 261.619 8.07775 267.504 8.07775C271.172 8.07775 274.476 9.10435 276.837 10.8392C277.056 10.9807 277.091 11.1929 276.91 11.4406L273.641 15.9722C273.496 16.1491 273.315 16.1841 273.133 16.0783C271.535 15.0514 269.681 14.3431 267.793 14.3431C266.34 14.3431 265.687 14.9099 265.687 15.6538C265.687 16.3617 266.268 16.7154 268.048 16.9634L269.355 17.1403ZM241.245 6.01972C241.087 6.01972 240.95 5.91284 240.916 5.76156C240.881 5.61179 240.959 5.45825 241.102 5.39239L252.849 0.0305663C252.956 -0.0164739 253.076 -0.00894745 253.174 0.051264C253.272 0.111475 253.331 0.216469 253.331 0.329365V5.69082C253.331 5.8722 253.179 6.01972 252.993 6.01972H241.245ZM201.161 18.7687C202.831 18.7687 203.702 18.0609 203.702 16.7155C203.702 15.3702 202.831 14.6623 201.161 14.6623H198.945C198.8 14.6623 198.727 14.7327 198.727 14.8746V18.5569C198.727 18.698 198.8 18.7687 198.945 18.7687H201.161ZM201.705 8.50269C208.497 8.50269 211.324 12.0066 211.324 16.8216C211.324 21.4944 208.388 24.7165 201.705 24.7165H198.945C198.8 24.7165 198.727 24.7872 198.727 24.9287V32.2207C198.727 32.4337 198.581 32.5752 198.364 32.5752H191.499C191.28 32.5752 191.134 32.4337 191.134 32.2207V8.85643C191.134 8.64381 191.28 8.50269 191.499 8.50269H201.705ZM165.982 8.5022C166.2 8.5022 166.346 8.6437 166.346 8.85594V14.3081C166.346 14.5207 166.2 14.6618 165.982 14.6618H155.135C154.989 14.6618 154.916 14.733 154.916 14.8744V17.211C154.916 17.3525 154.989 17.4233 155.135 17.4233H164.166C164.384 17.4233 164.53 17.5648 164.53 17.777V23.0873C164.53 23.2999 164.384 23.4414 164.166 23.4414H155.135C154.989 23.4414 154.916 23.5125 154.916 23.6544V26.2028C154.916 26.3447 154.989 26.4151 155.135 26.4151H165.982C166.2 26.4151 166.346 26.557 166.346 26.7688V32.2206C166.346 32.4328 166.2 32.5751 165.982 32.5751H147.724C147.507 32.5751 147.361 32.4328 147.361 32.2206V8.85594C147.361 8.6437 147.507 8.5022 147.724 8.5022H165.982ZM254.781 8.5022C254.999 8.5022 255.144 8.6437 255.144 8.85594V14.3081C255.144 14.5207 254.999 14.6618 254.781 14.6618H243.932C243.787 14.6618 243.714 14.733 243.714 14.8744V17.211C243.714 17.3525 243.787 17.4233 243.932 17.4233H252.964C253.182 17.4233 253.327 17.5648 253.327 17.777V23.0873C253.327 23.2999 253.182 23.4414 252.964 23.4414H243.932C243.787 23.4414 243.714 23.5125 243.714 23.6544V26.2028C243.714 26.3447 243.787 26.4151 243.932 26.4151H254.781C254.999 26.4151 255.144 26.557 255.144 26.7688V32.2206C255.144 32.4328 254.999 32.5751 254.781 32.5751H236.523C236.305 32.5751 236.16 32.4328 236.16 32.2206V8.85594C236.16 8.6437 236.305 8.5022 236.523 8.5022H254.781Z" fill="#FF3839"/>
</svg>
