<svg width="82" height="100" viewBox="0 0 82 100" fill="none" xmlns="http://www.w3.org/2000/svg">
<path fill-rule="evenodd" clip-rule="evenodd" d="M78.9036 76.7691C73.5946 92.7911 59.8803 100 41.738 100H1.47888C0.592131 100 0 99.4067 0 98.5283V1.47461C0 0.590421 0.592131 0 1.47888 0H41.738C59.8803 0 73.5946 7.20889 78.9036 23.2395C81.2634 30.4456 82 36.3267 82 50.0043C82 63.6762 81.2634 69.5602 78.9036 76.7691Z" fill="#FF3839"/>
<path d="M58.1936 71.304H53.743V78.9474H40.6431V71.304H15.871V58.6192L35.6887 21.0526H50.8039L30.9862 58.6192H40.6431V50.9757H53.743V58.6192H58.1936V71.304Z" fill="white"/>
</svg>
