<svg width="75" height="75" viewBox="0 0 75 75" fill="none" xmlns="http://www.w3.org/2000/svg">
<path fill-rule="evenodd" clip-rule="evenodd" d="M35.4076 43.9274H36.4016C38.6361 43.9274 39.7964 43.4305 40.3347 41.771C40.6234 40.9007 40.7061 40.1554 40.7061 37.5443C40.7061 34.9333 40.6234 34.1855 40.3347 33.316C39.7964 31.6573 38.6361 31.1596 36.4016 31.1596H35.4076C35.2414 31.1596 35.1587 31.2424 35.1587 31.4089V43.6782C35.1587 43.8438 35.2414 43.9274 35.4076 43.9274ZM48.6136 45.0892C47.1234 49.6058 43.2738 51.6379 38.1813 51.6379H26.8806C26.6317 51.6379 26.4655 51.4707 26.4655 51.223V23.864C26.4655 23.6147 26.6317 23.4483 26.8806 23.4483H38.1813C43.2738 23.4483 47.1234 25.4804 48.6136 29.9994C49.276 32.0308 49.4828 33.6886 49.4828 37.5443C49.4828 41.3984 49.276 43.057 48.6136 45.0892ZM37.5 75C16.7893 75 0 58.2107 0 37.5C0 16.7893 16.7893 0 37.5 0C58.2107 0 75 16.7893 75 37.5C75 58.2107 58.2107 75 37.5 75ZM37.5 68.0173C54.3542 68.0173 68.0172 54.3542 68.0172 37.5C68.0172 20.6458 54.3542 6.98277 37.5 6.98277C20.6458 6.98277 6.98275 20.6458 6.98275 37.5C6.98275 54.3542 20.6458 68.0173 37.5 68.0173Z" fill="#FF3839"/>
</svg>
