<svg width="100" height="100" viewBox="0 0 100 100" fill="none" xmlns="http://www.w3.org/2000/svg">
<path fill-rule="evenodd" clip-rule="evenodd" d="M64.9834 61.1723C62.966 67.2606 57.7545 70 50.8604 70H35.562C35.225 70 35 69.7745 35 69.4407V32.5604C35 32.2244 35.225 32 35.562 32H50.8604C57.7545 32 62.966 34.7394 64.9834 40.831C65.8801 43.5693 66.16 45.8042 66.16 51.0016C66.16 56.1969 65.8801 58.4329 64.9834 61.1723Z" fill="white"/>
<path d="M57.1135 59.0954H55.4223V61.9999H50.4444V59.0954H41.031V54.2752L48.5617 39.9999H54.3055L46.7747 54.2752H50.4444V51.3707H55.4223V54.2752H57.1135V59.0954Z" fill="#FF3839"/>
<circle cx="50" cy="50" r="49" stroke="white" stroke-width="2"/>
</svg>
