<?xml version="1.0" standalone="no"?>
<!DOCTYPE svg PUBLIC "-//W3C//DTD SVG 20010904//EN"
 "http://www.w3.org/TR/2001/REC-SVG-20010904/DTD/svg10.dtd">
<svg version="1.0" xmlns="http://www.w3.org/2000/svg"
 width="100.000000pt" height="100.000000pt" viewBox="0 0 512.000000 512.000000"
 preserveAspectRatio="xMidYMid meet">
<metadata>
Serre LOGO
</metadata>
<g transform="translate(0.000000,512.000000) scale(0.100000,-0.100000)"
fill="#e14eca" stroke="none">
<path d="M4110 4619 c-330 -38 -655 -156 -926 -337 -249 -166 -480 -405 -629
-650 -45 -74 -47 -66 48 -178 188 -220 357 -550 453 -882 5 -17 52 -12 226 23
456 92 858 339 1183 729 276 331 454 806 455 1214 l0 92 -367 -1 c-203 -1
-402 -5 -443 -10z"/>
<path d="M200 3945 c0 -174 46 -424 112 -615 150 -429 491 -839 908 -1090 261
-158 548 -245 888 -271 l152 -12 0 -682 0 -682 23 -34 c41 -62 69 -69 277 -69
208 0 236 7 277 69 l23 34 0 773 c0 637 -3 794 -15 891 -40 303 -144 588 -305
832 -91 139 -160 222 -289 351 -348 347 -751 540 -1230 589 -57 6 -265 11
-462 11 l-359 0 0 -95z"/>
</g>
</svg>
