<svg width="220" height="69" viewBox="0 0 220 69" fill="none" xmlns="http://www.w3.org/2000/svg">
<path fill-rule="evenodd" clip-rule="evenodd" d="M15.838 21.5416C16.1677 20.5462 16.2621 19.6931 16.2621 16.7033C16.2621 13.7145 16.1677 12.8585 15.838 11.8632C15.2232 9.96447 13.8982 9.3957 11.3463 9.3957H10.2111C10.0223 9.3957 9.92781 9.48957 9.92781 9.68009V23.7256C9.92781 23.9152 10.0223 24.01 10.2111 24.01H11.3463C13.8982 24.01 15.2232 23.4412 15.838 21.5416ZM13.3788 0.568586C19.1945 0.568586 23.5908 2.89479 25.2927 8.06671C26.0492 10.392 26.2853 12.2897 26.2853 16.7033C26.2853 21.115 26.0492 23.0137 25.2927 25.3399C23.5908 30.51 19.1945 32.8362 13.3788 32.8362H0.47315C0.18889 32.8362 0 32.6447 0 32.3622V1.04349C0 0.759106 0.18889 0.568586 0.47315 0.568586H13.3788ZM45.343 22.539C45.6745 21.4953 45.7208 20.1189 45.7208 16.7035C45.7208 13.2862 45.6745 11.9089 45.343 10.8661C44.918 9.53715 43.7838 8.82526 42.3171 8.82526C40.8514 8.82526 39.718 9.53715 39.2921 10.8661C38.9606 11.9089 38.9134 13.2862 38.9134 16.7035C38.9134 20.1189 38.9606 21.4953 39.2921 22.539C39.718 23.8689 40.8514 24.5789 42.3171 24.5789C43.7838 24.5789 44.918 23.8689 45.343 22.539ZM42.3171 0C48.0847 0 53.0014 2.60966 54.7505 8.01857C55.6023 10.7239 55.7431 12.6691 55.7431 16.7035C55.7431 20.736 55.6023 22.6812 54.7505 25.3856C53.0014 30.7955 48.0847 33.4051 42.3171 33.4051C36.5504 33.4051 31.6328 30.7955 29.8837 25.3856C29.0328 22.6812 28.8911 20.736 28.8911 16.7035C28.8911 12.6691 29.0328 10.7239 29.8837 8.01857C31.6328 2.60966 36.5504 0 42.3171 0ZM65.6149 20.7838L55.6398 1.09145C55.4972 0.806132 55.6398 0.568214 55.9695 0.568214H64.9047C65.2834 0.568214 65.5204 0.710407 65.7093 1.04405L70.626 11.1509H70.7677L75.5427 1.04405C75.6844 0.710407 75.9686 0.568214 76.3464 0.568214H85.1872C85.5177 0.568214 85.6585 0.806132 85.5177 1.09145L75.5427 20.7838V32.3618C75.5427 32.6453 75.3529 32.8367 75.0705 32.8367H66.0871C65.8028 32.8367 65.6149 32.6453 65.6149 32.3618V20.7838ZM95.7958 10.8666C95.4643 11.9094 95.4171 13.2867 95.4171 16.703C95.4171 20.1194 95.4643 21.4958 95.7958 22.5394C96.2208 23.8684 97.3551 24.5794 98.8199 24.5794C100.287 24.5794 101.422 23.8684 101.847 22.5394C102.178 21.4958 102.225 20.1194 102.225 16.703C102.225 13.2867 102.178 11.9094 101.847 10.8666C101.422 9.53668 100.287 8.82572 98.8199 8.82572C97.3551 8.82572 96.2208 9.53668 95.7958 10.8666ZM98.8199 33.4056C93.0532 33.4056 88.1365 30.795 86.3865 25.3861C85.5356 22.6816 85.3949 20.7355 85.3949 16.703C85.3949 12.6686 85.5356 10.7244 86.3865 8.01903C88.1365 2.60919 93.0532 0.000464683 98.8199 0.000464683C104.588 0.000464683 109.504 2.60919 111.254 8.01903C112.106 10.7244 112.246 12.6686 112.246 16.703C112.246 20.7355 112.106 22.6816 111.254 25.3861C109.504 30.795 104.588 33.4056 98.8199 33.4056ZM116.035 32.8364C115.751 32.8364 115.562 32.645 115.562 32.3615V1.04377C115.562 0.758455 115.751 0.567935 116.035 0.567935H124.498C124.78 0.567935 125.159 0.711058 125.3 1.04377L132.959 16.9396H133.196V1.04377C133.196 0.758455 133.385 0.567935 133.668 0.567935H141.659C141.942 0.567935 142.132 0.758455 142.132 1.04377V32.3615C142.132 32.645 141.942 32.8364 141.659 32.8364H133.196C132.912 32.8364 132.534 32.6933 132.391 32.3615L124.78 16.4657H124.498V32.3615C124.498 32.645 124.308 32.8364 124.024 32.8364H116.035ZM15.838 57.137C16.1677 56.1417 16.2621 55.2876 16.2621 52.2969C16.2621 49.308 16.1677 48.454 15.838 47.4567C15.2232 45.5599 13.8982 44.9902 11.3463 44.9902H10.2111C10.0223 44.9902 9.92781 45.0841 9.92781 45.2755V59.321C9.92781 59.5106 10.0223 59.6045 10.2111 59.6045H11.3463C13.8982 59.6045 15.2232 59.0357 15.838 57.137ZM13.3788 36.164C19.1945 36.164 23.5908 38.4893 25.2927 43.6612C26.0492 45.9856 26.2853 47.8852 26.2853 52.2969C26.2853 56.7104 26.0492 58.6082 25.2927 60.9335C23.5908 66.1054 19.1945 68.4307 13.3788 68.4307H0.47315C0.18889 68.4307 0 68.2402 0 67.9567V36.638C0 36.3536 0.18889 36.164 0.47315 36.164H13.3788ZM73.0604 47.7426C80.6715 48.7863 84.3113 52.0605 84.3113 58.4666C84.3113 64.5864 79.5372 69 70.5548 69C65.0233 69 59.4918 66.7705 57.0325 64.2565C56.8436 64.0641 56.7501 63.6868 56.9862 63.4015L61.9974 57.4712C62.1863 57.2324 62.4233 57.2324 62.6122 57.4229C64.4094 59.0353 67.4816 60.5539 70.4604 60.5539C72.9659 60.5539 74.1483 59.7482 74.1483 58.4666C74.1483 57.6106 73.5798 57.0902 71.1215 56.7575L69.4187 56.5214C62.0455 55.4759 58.1205 52.2026 58.1205 45.8439C58.1205 39.7222 62.99 35.594 70.6492 35.594C75.4252 35.594 79.7261 36.9703 82.7993 39.2956C83.0836 39.4852 83.1289 39.7705 82.8937 40.1014L78.6391 46.1766C78.4493 46.4136 78.2141 46.461 77.977 46.3198C75.8965 44.9415 73.4854 43.9936 71.027 43.9936C69.1353 43.9936 68.2863 44.7519 68.2863 45.7491C68.2863 46.6971 69.0409 47.1729 71.3594 47.5047L73.0604 47.7426ZM128.705 49.9253C130.833 49.9253 131.92 48.8807 131.92 47.1725C131.92 45.4634 130.833 44.4198 128.705 44.4198H125.727C125.537 44.4198 125.443 44.5155 125.443 44.706V49.64C125.443 49.8296 125.537 49.9253 125.727 49.9253H128.705ZM137.023 56.0935L142.416 67.9104C142.509 68.1455 142.416 68.4309 142.083 68.4309H132.204C131.778 68.4309 131.634 68.2887 131.494 67.9559L127.382 57.8965H125.727C125.537 57.8965 125.443 57.9913 125.443 58.1809V67.9559C125.443 68.2403 125.255 68.4309 124.97 68.4309H116.035C115.751 68.4309 115.562 68.2403 115.562 67.9559V36.6382C115.562 36.3529 115.751 36.1633 116.035 36.1633H129.461C137.734 36.1633 141.848 40.72 141.848 47.0304C141.848 50.969 140.241 54.1958 137.023 56.0935ZM188.748 47.7426C196.36 48.7863 200 52.0605 200 58.4666C200 64.5864 195.225 69 186.243 69C180.711 69 175.18 66.7705 172.721 64.2565C172.533 64.0641 172.44 63.6868 172.675 63.4015L177.686 57.4712C177.876 57.2324 178.112 57.2324 178.302 57.4229C180.098 59.0353 183.171 60.5539 186.148 60.5539C188.654 60.5539 189.836 59.7482 189.836 58.4666C189.836 57.6106 189.268 57.0902 186.81 56.7575L185.109 56.5214C177.733 55.4759 173.81 52.2026 173.81 45.8439C173.81 39.7222 178.679 35.594 186.338 35.594C191.113 35.594 195.415 36.9703 198.487 39.2956C198.77 39.4852 198.818 39.7705 198.581 40.1014L194.326 46.1766C194.138 46.4136 193.901 46.461 193.667 46.3198C191.586 44.9415 189.173 43.9936 186.715 43.9936C184.825 43.9936 183.974 44.7519 183.974 45.7491C183.974 46.6971 184.73 47.1729 187.047 47.5047L188.748 47.7426ZM99.9869 49.9253C102.16 49.9253 103.296 48.9764 103.296 47.1725C103.296 45.3696 102.16 44.4198 99.9869 44.4198H97.1035C96.9146 44.4198 96.8202 44.5155 96.8202 44.706V49.64C96.8202 49.8296 96.9146 49.9253 97.1035 49.9253H99.9869ZM100.696 36.1633C109.536 36.1633 113.216 40.8612 113.216 47.3147C113.216 53.5777 109.393 57.8965 100.696 57.8965H97.1035C96.9146 57.8965 96.8202 57.9913 96.8202 58.1827V67.9559C96.8202 68.2403 96.6304 68.4309 96.3452 68.4309H87.4109C87.1266 68.4309 86.9368 68.2403 86.9368 67.9559V36.6382C86.9368 36.3529 87.1266 36.1633 87.4109 36.1633H100.696ZM54.1985 36.1637C54.4828 36.1637 54.6726 36.3532 54.6726 36.6386V43.9452C54.6726 44.2306 54.4828 44.4201 54.1985 44.4201H40.079C39.8901 44.4201 39.7957 44.5149 39.7957 44.7055V47.8374C39.7957 48.0261 39.8901 48.1209 40.079 48.1209H51.8346C52.118 48.1209 52.3078 48.3105 52.3078 48.5958V55.7138C52.3078 56 52.118 56.1878 51.8346 56.1878H40.079C39.8901 56.1878 39.7957 56.2835 39.7957 56.474V59.8894C39.7957 60.08 39.8901 60.1738 40.079 60.1738H54.1985C54.4828 60.1738 54.6726 60.3643 54.6726 60.6497V67.9563C54.6726 68.2407 54.4828 68.4312 54.1985 68.4312H30.4336C30.1512 68.4312 29.9623 68.2407 29.9623 67.9563V36.6386C29.9623 36.3532 30.1512 36.1637 30.4336 36.1637H54.1985ZM152.161 32.8364C151.955 32.8364 151.776 32.6924 151.732 32.4907C151.687 32.2881 151.788 32.0827 151.974 31.9944L167.265 24.8067C167.404 24.7454 167.56 24.7556 167.687 24.8355C167.813 24.9164 167.891 25.0576 167.891 25.2082V32.3941C167.891 32.6385 167.695 32.8364 167.451 32.8364H152.161ZM169.778 36.1637C170.063 36.1637 170.251 36.3532 170.251 36.6386V43.9452C170.251 44.2306 170.063 44.4201 169.778 44.4201H155.659C155.47 44.4201 155.375 44.5149 155.375 44.7055V47.8374C155.375 48.0261 155.47 48.1209 155.659 48.1209H167.414C167.697 48.1209 167.888 48.3105 167.888 48.5958V55.7138C167.888 56 167.697 56.1878 167.414 56.1878H155.659C155.47 56.1878 155.375 56.2835 155.375 56.474V59.8894C155.375 60.08 155.47 60.1738 155.659 60.1738H169.778C170.063 60.1738 170.251 60.3643 170.251 60.6497V67.9563C170.251 68.2407 170.063 68.4312 169.778 68.4312H146.014C145.73 68.4312 145.542 68.2407 145.542 67.9563V36.6386C145.542 36.3532 145.73 36.1637 146.014 36.1637H169.778Z" fill="#FF3839"/>
</svg>
